<svg id="visual" viewBox="0 0 900 600" width="900" height="600" xmlns="http://www.w3.org/2000/svg" xmlns:xlink="http://www.w3.org/1999/xlink" version="1.1"><rect x="0" y="0" width="900" height="600" fill="#141342"></rect><g transform="translate(76.77137557197511 79.49119897253831)"><path d="M421.6 -660.7C478.3 -539 409.4 -324.8 439.3 -159.9C469.2 4.9 597.9 120.5 559.2 163.8C520.5 207 314.3 177.9 193.2 296.9C72.1 415.9 36.1 683 18 658.1C0 633.3 0 316.7 -145.4 205.6C-290.7 94.5 -581.4 188.9 -678.4 157.4C-775.4 125.9 -678.7 -31.6 -628.9 -210.3C-579.1 -389 -576.1 -588.9 -479.1 -697.5C-382.1 -806.2 -191 -823.6 -4.3 -817.7C182.4 -811.7 364.8 -782.5 421.6 -660.7" fill="#201f5a"></path></g></svg>